REM DIRINDEX 1\2,1\3,1\4,1\5
REM DIRNAME cjc046,folder01,folder02,folder03,folder04
TITLE ""
FILE "134.mp3" MP3
  TRACK 01 AUDIO
    TITLE "0:"
    INDEX 01 00:00:00
  TRACK 02 AUDIO
    TITLE "2:cjc046_3474"
    INDEX 01 00:00:11
  TRACK 03 AUDIO
    TITLE "0:"
    INDEX 01 00:01:11
  TRACK 04 AUDIO
    TITLE "3:cjc046_3475"
    INDEX 01 00:01:24
  TRACK 05 AUDIO
    TITLE "0:"
    INDEX 01 00:02:26
  TRACK 06 AUDIO
    TITLE "4:cjc046_3476"
    INDEX 01 00:02:42
  TRACK 07 AUDIO
    TITLE "0:"
    INDEX 01 00:03:41
  TRACK 08 AUDIO
    TITLE "2:cjc046_3477"
    INDEX 01 00:04:48
  TRACK 09 AUDIO
    TITLE "0:"
    INDEX 01 00:05:63
  TRACK 10 AUDIO
    TITLE "3:cjc046_3478"
    INDEX 01 00:06:04
  TRACK 11 AUDIO
    TITLE "0:"
    INDEX 01 00:08:11
  TRACK 12 AUDIO
    TITLE "4:cjc046_3479"
    INDEX 01 00:08:28
  TRACK 13 AUDIO
    TITLE "0:"
    INDEX 01 00:09:44
  TRACK 14 AUDIO
    TITLE "2:cjc046_3480"
    INDEX 01 00:10:47
  TRACK 15 AUDIO
    TITLE "0:"
    INDEX 01 00:11:52
  TRACK 16 AUDIO
    TITLE "3:cjc046_3481"
    INDEX 01 00:11:74
  TRACK 17 AUDIO
    TITLE "0:"
    INDEX 01 00:13:04
  TRACK 18 AUDIO
    TITLE "4:cjc046_3482"
    INDEX 01 00:13:24
  TRACK 19 AUDIO
    TITLE "0:"
    INDEX 01 00:14:31
  TRACK 20 AUDIO
    TITLE "2:cjc046_3483"
    INDEX 01 00:15:40
  TRACK 21 AUDIO
    TITLE "0:"
    INDEX 01 00:16:44
  TRACK 22 AUDIO
    TITLE "3:cjc046_3484"
    INDEX 01 00:16:61
  TRACK 23 AUDIO
    TITLE "0:"
    INDEX 01 00:17:53
  TRACK 24 AUDIO
    TITLE "4:cjc046_3485"
    INDEX 01 00:17:70
  TRACK 25 AUDIO
    TITLE "0:"
    INDEX 01 00:18:74
  TRACK 26 AUDIO
    TITLE "2:cjc046_3486"
    INDEX 01 00:20:06
  TRACK 27 AUDIO
    TITLE "0:"
    INDEX 01 00:21:15
  TRACK 28 AUDIO
    TITLE "3:cjc046_3487"
    INDEX 01 00:21:33
  TRACK 29 AUDIO
    TITLE "0:"
    INDEX 01 00:22:40
  TRACK 30 AUDIO
    TITLE "4:cjc046_3488"
    INDEX 01 00:22:54
  TRACK 31 AUDIO
    TITLE "0:"
    INDEX 01 00:23:63
  TRACK 32 AUDIO
    TITLE "2:cjc046_3489"
    INDEX 01 00:24:71
  TRACK 33 AUDIO
    TITLE "0:"
    INDEX 01 00:26:11
  TRACK 34 AUDIO
    TITLE "3:cjc046_3490"
    INDEX 01 00:26:28
  TRACK 35 AUDIO
    TITLE "0:"
    INDEX 01 00:27:59
  TRACK 36 AUDIO
    TITLE "4:cjc046_3491"
    INDEX 01 00:28:04
  TRACK 37 AUDIO
    TITLE "0:"
    INDEX 01 00:29:17
  TRACK 38 AUDIO
    TITLE "2:cjc046_3492"
    INDEX 01 00:30:30
  TRACK 39 AUDIO
    TITLE "0:"
    INDEX 01 00:31:41
  TRACK 40 AUDIO
    TITLE "3:cjc046_3493"
    INDEX 01 00:31:63
  TRACK 41 AUDIO
    TITLE "0:"
    INDEX 01 00:33:11
  TRACK 42 AUDIO
    TITLE "4:cjc046_3494"
    INDEX 01 00:33:30
  TRACK 43 AUDIO
    TITLE "0:"
    INDEX 01 00:34:42
  TRACK 44 AUDIO
    TITLE "2:cjc046_3495"
    INDEX 01 00:35:51
  TRACK 45 AUDIO
    TITLE "0:"
    INDEX 01 00:36:58
  TRACK 46 AUDIO
    TITLE "3:cjc046_3496"
    INDEX 01 00:37:03
  TRACK 47 AUDIO
    TITLE "0:"
    INDEX 01 00:38:14
  TRACK 48 AUDIO
    TITLE "4:cjc046_3497"
    INDEX 01 00:38:30
  TRACK 49 AUDIO
    TITLE "0:"
    INDEX 01 00:39:35
  TRACK 50 AUDIO
    TITLE "2:cjc046_3498"
    INDEX 01 00:40:44
  TRACK 51 AUDIO
    TITLE "0:"
    INDEX 01 00:41:49
  TRACK 52 AUDIO
    TITLE "3:cjc046_3499"
    INDEX 01 00:41:71
  TRACK 53 AUDIO
    TITLE "0:"
    INDEX 01 00:42:72
  TRACK 54 AUDIO
    TITLE "4:cjc046_3500"
    INDEX 01 00:43:15
  TRACK 55 AUDIO
    TITLE "0:"
    INDEX 01 00:44:22
  TRACK 56 AUDIO
    TITLE "2:cjc046_3501"
    INDEX 01 00:45:30
  TRACK 57 AUDIO
    TITLE "0:"
    INDEX 01 00:46:29
  TRACK 58 AUDIO
    TITLE "3:cjc046_3502"
    INDEX 01 00:46:49
  TRACK 59 AUDIO
    TITLE "0:"
    INDEX 01 00:47:38
  TRACK 60 AUDIO
    TITLE "4:cjc046_3503"
    INDEX 01 00:47:60
  TRACK 61 AUDIO
    TITLE "0:"
    INDEX 01 00:48:59
  TRACK 62 AUDIO
    TITLE "2:cjc046_3504"
    INDEX 01 00:49:69
  TRACK 63 AUDIO
    TITLE "0:"
    INDEX 01 00:50:70
  TRACK 64 AUDIO
    TITLE "3:cjc046_3505"
    INDEX 01 00:51:16
  TRACK 65 AUDIO
    TITLE "0:"
    INDEX 01 00:52:08
  TRACK 66 AUDIO
    TITLE "4:cjc046_3506"
    INDEX 01 00:52:26
  TRACK 67 AUDIO
    TITLE "0:"
    INDEX 01 00:53:29
  TRACK 68 AUDIO
    TITLE "2:cjc046_3507"
    INDEX 01 00:54:38
  TRACK 69 AUDIO
    TITLE "0:"
    INDEX 01 00:55:40
  TRACK 70 AUDIO
    TITLE "3:cjc046_3508"
    INDEX 01 00:55:61
  TRACK 71 AUDIO
    TITLE "0:"
    INDEX 01 00:57:07
  TRACK 72 AUDIO
    TITLE "4:cjc046_3509"
    INDEX 01 00:57:25
  TRACK 73 AUDIO
    TITLE "0:"
    INDEX 01 00:58:26
  TRACK 74 AUDIO
    TITLE "2:cjc046_3510"
    INDEX 01 00:59:36
  TRACK 75 AUDIO
    TITLE "0:"
    INDEX 01 01:00:49
  TRACK 76 AUDIO
    TITLE "3:cjc046_3511"
    INDEX 01 01:00:66
  TRACK 77 AUDIO
    TITLE "0:"
    INDEX 01 01:01:74
  TRACK 78 AUDIO
    TITLE "4:cjc046_3512"
    INDEX 01 01:02:16
  TRACK 79 AUDIO
    TITLE "0:"
    INDEX 01 01:03:31
  TRACK 80 AUDIO
    TITLE "2:cjc046_3513"
    INDEX 01 01:04:35
  TRACK 81 AUDIO
    TITLE "0:"
    INDEX 01 01:05:46
  TRACK 82 AUDIO
    TITLE "3:cjc046_3514"
    INDEX 01 01:05:66
  TRACK 83 AUDIO
    TITLE "0:"
    INDEX 01 01:07:72
  TRACK 84 AUDIO
    TITLE "4:cjc046_3515"
    INDEX 01 01:08:11
  TRACK 85 AUDIO
    TITLE "0:"
    INDEX 01 01:09:26
  TRACK 86 AUDIO
    TITLE "2:cjc046_3516"
    INDEX 01 01:10:31
  TRACK 87 AUDIO
    TITLE "0:"
    INDEX 01 01:11:43
  TRACK 88 AUDIO
    TITLE "3:cjc046_3517"
    INDEX 01 01:11:58
  TRACK 89 AUDIO
    TITLE "0:"
    INDEX 01 01:12:73
  TRACK 90 AUDIO
    TITLE "4:cjc046_3518"
    INDEX 01 01:13:14
  TRACK 91 AUDIO
    TITLE "0:"
    INDEX 01 01:14:27
  TRACK 92 AUDIO
    TITLE "2:cjc046_3519"
    INDEX 01 01:15:27
  TRACK 93 AUDIO
    TITLE "0:"
    INDEX 01 01:16:44
  TRACK 94 AUDIO
    TITLE "3:cjc046_3520"
    INDEX 01 01:16:61
  TRACK 95 AUDIO
    TITLE "0:"
    INDEX 01 01:18:07
  TRACK 96 AUDIO
    TITLE "4:cjc046_3521"
    INDEX 01 01:18:19
  TRACK 97 AUDIO
    TITLE "0:"
    INDEX 01 01:19:36
